<svg width="273" height="116" viewBox="0 0 273 116" fill="none" xmlns="http://www.w3.org/2000/svg">
<circle cx="46" cy="59.0419" r="46" fill="white"/>
<mask id="mask0_5_63" style="mask-type:alpha" maskUnits="userSpaceOnUse" x="0" y="13" width="92" height="93">
<circle cx="46" cy="59.0419" r="46" fill="black"/>
</mask>
<g mask="url(#mask0_5_63)">
<path fill-rule="evenodd" clip-rule="evenodd" d="M12.4612 5.39831L-3.30749 21.167L34.479 58.9535L-3.3075 96.74L12.4612 112.509L45.1418 79.8281L77.8224 112.509L93.5911 96.74L55.8045 58.9535L93.5911 21.167L77.8224 5.39831L45.1418 38.0789L12.4612 5.39831Z" fill="white"/>
<path fill-rule="evenodd" clip-rule="evenodd" d="M12.4611 15.9105L7.20486 21.1668L44.9914 58.9533L7.20486 96.7398L12.4611 101.996L44.9914 75L77.8223 101.996L83.0785 96.7398L45.292 58.9533L83.0785 21.1668L77.8223 15.9105L44.9914 43L12.4611 15.9105Z" fill="url(#paint0_linear_5_63)"/>
</g>
<path fill-rule="evenodd" clip-rule="evenodd" d="M83.1399 11.5L45 43L51.7763 31.3636L83.1399 0V11.5Z" fill="white"/>
<path fill-rule="evenodd" clip-rule="evenodd" d="M40.2237 84.6293L8.86008 115.993V105L45 75L40.2237 84.6293Z" fill="white"/>
<path d="M148.4 80H138.14L120.98 54.02V80H110.72V37.88H120.98L138.14 63.98V37.88H148.4V80ZM183.257 37.88V46.1H166.097V54.98H178.937V62.96H166.097V80H155.837V37.88H183.257ZM218.95 37.88V46.1H207.79V80H197.53V46.1H186.37V37.88H218.95ZM226.439 37.88H236.939L230.219 53.96H223.319L226.439 37.88ZM256.586 80.48C253.666 80.48 251.066 79.98 248.786 78.98C246.506 77.98 244.706 76.62 243.386 74.9C242.066 73.14 241.326 71.18 241.166 69.02H251.306C251.426 70.18 251.966 71.12 252.926 71.84C253.886 72.56 255.066 72.92 256.466 72.92C257.746 72.92 258.726 72.68 259.406 72.2C260.126 71.68 260.486 71.02 260.486 70.22C260.486 69.26 259.986 68.56 258.986 68.12C257.986 67.64 256.366 67.12 254.126 66.56C251.726 66 249.726 65.42 248.126 64.82C246.526 64.18 245.146 63.2 243.986 61.88C242.826 60.52 242.246 58.7 242.246 56.42C242.246 54.5 242.766 52.76 243.806 51.2C244.886 49.6 246.446 48.34 248.486 47.42C250.566 46.5 253.026 46.04 255.866 46.04C260.066 46.04 263.366 47.08 265.766 49.16C268.206 51.24 269.606 54 269.966 57.44H260.486C260.326 56.28 259.806 55.36 258.926 54.68C258.086 54 256.966 53.66 255.566 53.66C254.366 53.66 253.446 53.9 252.806 54.38C252.166 54.82 251.846 55.44 251.846 56.24C251.846 57.2 252.346 57.92 253.346 58.4C254.386 58.88 255.986 59.36 258.146 59.84C260.626 60.48 262.646 61.12 264.206 61.76C265.766 62.36 267.126 63.36 268.286 64.76C269.486 66.12 270.106 67.96 270.146 70.28C270.146 72.24 269.586 74 268.466 75.56C267.386 77.08 265.806 78.28 263.726 79.16C261.686 80.04 259.306 80.48 256.586 80.48Z" fill="#B2B2B2"/>
<defs>
<linearGradient id="paint0_linear_5_63" x1="45.1417" y1="15.9105" x2="45.1417" y2="101.996" gradientUnits="userSpaceOnUse">
<stop stop-color="#03A0C2"/>
<stop offset="1" stop-color="#004C84"/>
</linearGradient>
</defs>
</svg>
